<svg t="1766540114933" class="icon" viewBox="0 0 1024 1024" version="1.1" xmlns="http://www.w3.org/2000/svg" p-id="12222" width="200" height="200"><path d="M320 0c-38.4 0-64 25.6-64 64H64c-38.4 0-64 25.6-64 64v704c0 38.4 25.6 64 64 64h384v-64H64V128h640v192h64V128c0-38.4-25.6-64-64-64H512c0-38.4-25.6-64-64-64H320zM224 192c-19.2 0-32 12.8-32 32s12.8 32 32 32h320c19.2 0 32-12.8 32-32S563.2 192 544 192h-320zM576 384c-38.4 0-64 25.6-64 64v512c0 38.4 25.6 64 64 64h192l256-256V448c0-38.4-25.6-64-64-64H576z m0 64h384v288h-160c-38.4 0-64 25.6-64 64V960H576V448z m224 352h102.4l-102.4 102.4v-102.4z" p-id="12223" fill="#000000"></path></svg>