<svg t="1766507672666" class="icon" viewBox="0 0 1024 1024" version="1.1" xmlns="http://www.w3.org/2000/svg" p-id="9074" width="200" height="200"><path d="M698.112 110.72l-71.296 130.133333a384 384 0 0 1-204.16 175.872l-163.370667 60.16-31.445333 258.816L469.333333 494.165333l60.330667 60.330667-241.493333 241.493333 258.688-31.445333 60.501333-165.717333a384 384 0 0 1 171.818667-202.666667l130.218666-73.557333 41.984 74.282666-130.218666 73.6a298.666667 298.666667 0 0 0-133.632 157.610667l-78.421334 214.869333-487.509333 59.306667L180.864 414.72l212.309333-78.08a298.666667 298.666667 0 0 0 158.805334-136.789333l71.296-130.133334 74.837333 40.96z" fill="#000000" p-id="9075"></path></svg>