<svg t="1766540195822" class="icon" viewBox="0 0 1024 1024" version="1.1" xmlns="http://www.w3.org/2000/svg" p-id="7726" width="200" height="200"><path d="M121.6 773.485714h72.045714v66.596572c0 79.798857 40.283429 120.064 121.6 120.064h587.154286c80.548571 0 121.6-40.283429 121.6-120.064V428.397714c0-79.396571-41.051429-119.68-121.6-119.68h-72.045714v-62.72c0-79.798857-40.667429-120.064-121.234286-120.064H121.6C40.685714 125.915429 0 166.180571 0 245.961143v407.826286c0 79.780571 40.667429 119.661714 121.6 119.661714z m1.170286-62.354285c-38.729143 0-60.416-20.534857-60.416-60.818286V249.472c0-40.283429 21.686857-61.202286 60.416-61.202286h585.197714c38.345143 0 60.032 20.918857 60.032 61.202286v59.245714H315.245714c-81.316571 0-121.6 39.899429-121.6 119.68V711.131429z m193.261714 186.660571c-38.729143 0-60.032-20.900571-60.032-61.184V431.890286c0-40.283429 21.302857-60.818286 60.032-60.818286h585.197714c38.345143 0 60.416 20.534857 60.416 60.818286v404.717714c0 40.283429-22.070857 61.184-60.416 61.184z" p-id="7727" fill="#000000"></path></svg>